Coordinates
version=1
nRows=14
nColumns=42
inDegrees=yes

Units are S.I. units (second, meters, Newtons, ...)
If the header above contains a line with 'inDegrees', this indicates whether rotational values are in degrees (yes) or radians (no).

endheader
time	pelvis_tilt	pelvis_list	pelvis_rotation	pelvis_tx	pelvis_ty	pelvis_tz	hip_flexion_r	hip_adduction_r	hip_rotation_r	knee_angle_r	knee_angle_r_beta	ankle_angle_r	subtalar_angle_r	mtp_angle_r	hip_flexion_l	hip_adduction_l	hip_rotation_l	knee_angle_l	knee_angle_l_beta	ankle_angle_l	subtalar_angle_l	mtp_angle_l	lumbar_extension	lumbar_bending	lumbar_rotation	sh_tx_r	sh_ty_r	sh_tz_r	sh_plane_elev_r	sh_elev_r	sh_axial_rot_r	elbow_flex_r	pro_sup_r	sh_tx_l	sh_ty_l	sh_tz_l	sh_plane_elev_l	sh_elev_l	sh_axial_rot_l	elbow_flex_l	pro_sup_l
      1.55932200	     -2.76116769	     -0.22480347	     -2.77485949	      0.29036326	      0.93611386	     -0.08752830	      1.18589245	     -4.23986508	     -8.60701084	      0.46684272	      0.00814794	      2.34440674	     -3.47042458	     -7.49999740	      2.36881445	     -2.21086678	     -7.54243359	      4.46635481	      0.07795260	      8.17281423	     -3.74229066	     -7.49999740	     -0.91319479	     -0.89154154	     -9.71057562	      0.02307136	     -0.01800616	     -0.00447539	     21.42907287	      6.60077833	     -3.13961061	     27.60837393	     59.10774366	      0.01587205	     -0.01492315	     -0.00378767	     33.37703580	     27.46626927	    -30.75865113	     42.49606978	     45.43276018
      1.57627120	     -2.42870393	     -0.26650597	     -2.77314807	      0.29032408	      0.93615611	     -0.08734359	      0.82536583	     -4.23075835	     -8.61806728	      0.46534214	      0.00812175	      2.42793537	     -3.33326979	     -7.49999755	      1.98767644	     -2.22613837	     -7.62943434	      4.37093620	      0.07628723	      7.94693167	     -3.87099313	     -7.49999755	     -1.02578308	     -0.88510987	     -9.81968993	      0.02537520	     -0.01790609	     -0.00466787	     21.46983244	      6.42159084	     -3.41949585	     26.66483134	     58.94271069	      0.01715178	     -0.01479126	     -0.00381664	     33.49445295	     27.61723141	    -31.33935039	     42.16324203	     45.37009039
      1.59322030	     -2.57304078	     -0.28407503	     -2.77516486	      0.28620269	      0.93600432	     -0.08271523	      1.06338189	     -4.14674939	     -8.45276775	      0.47717251	      0.00832823	      2.43889294	     -3.36036261	     -7.49999798	      2.27821696	     -2.30207192	     -7.61794522	      4.51237473	      0.07875580	      7.98959961	     -3.93500746	     -7.49999798	     -0.83788691	     -0.94054838	     -9.86151537	      0.02589372	     -0.01795968	     -0.00471352	     21.84307780	      6.32765315	     -3.96646407	     26.54371683	     58.55412545	      0.01711027	     -0.01462314	     -0.00378513	     33.83904861	     27.97741962	    -32.13164577	     42.06657327	     45.38865592
      1.61016950	     -2.96940426	     -0.35301912	     -2.76924183	      0.28544021	      0.93481345	     -0.08272475	      1.99712062	     -4.05386161	     -8.37386326	      1.32617460	      0.02314611	      2.95923511	     -3.41541823	     -7.49999810	      3.28185551	     -2.52796276	     -7.63806087	      5.47650184	      0.09558299	      8.43425539	     -4.07020052	     -7.49999810	     -1.30851366	     -0.89006429	     -9.52371809	      0.02051090	     -0.01467574	     -0.00503155	     22.68497030	      6.95962600	     -3.81326327	     27.97870609	     58.60826286	      0.01529817	     -0.00938432	     -0.00460527	     34.35668279	     28.57519558	    -31.99625585	     42.63303263	     45.70075897
      1.62711860	     -2.57298722	     -0.30787015	     -2.74943244	      0.28636817	      0.93888400	     -0.08305589	      1.16767912	     -3.99776174	     -8.29837848	      0.48631162	      0.00848774	      2.47768360	     -3.17126377	     -7.49999811	      2.50225683	     -2.46542681	     -7.61801601	      4.65568007	      0.08125695	      7.83427061	     -3.94235081	     -7.49999811	     -0.99820500	     -1.08660625	     -9.79779377	      0.02561233	     -0.01799331	     -0.00481354	     23.04505777	      6.23683806	     -4.66113343	     26.39959819	     57.94885596	      0.01666350	     -0.01405553	     -0.00379960	     34.54368974	     28.82679673	    -32.83206803	     41.98306196	     44.16099809
      1.64406780	     -2.55429369	     -0.36186252	     -2.75033955	      0.28627959	      0.93837451	     -0.08298735	      1.20629894	     -3.87083738	     -8.26057340	      0.48187731	      0.00841035	      2.45972269	     -3.13648718	     -7.49999811	      2.56789754	     -2.56623590	     -7.55199197	      4.65334731	      0.08121623	      7.78902666	     -3.87495620	     -7.49999811	     -1.00207917	     -1.10523590	     -9.74325316	      0.02580309	     -0.01798933	     -0.00492768	     23.04761900	      6.20726226	     -4.65482689	     26.39817640	     57.94760839	      0.01765042	     -0.01352879	     -0.00382959	     34.51655106	     28.97358128	    -32.85726671	     42.01556678	     44.13029283
      1.66101700	     -2.54169183	     -0.40285465	     -2.70987777	      0.28629492	      0.93838991	     -0.08319329	      1.23327321	     -3.76034768	     -8.29565657	      0.48220214	      0.00841601	      2.40318754	     -3.04979890	     -7.49999821	      2.64558685	     -2.66396550	     -7.65367481	      4.70614186	      0.08213767	      7.74858857	     -3.70281110	     -7.49999821	     -1.14164707	     -1.11099507	     -9.62608682	      0.02518029	     -0.01798402	     -0.00498113	     23.37059967	      6.19040801	     -4.72939437	     26.32528978	     57.87678779	      0.01742095	     -0.01331383	     -0.00387225	     34.89505828	     29.32454809	    -33.17242569	     42.26544594	     43.99519910
      1.67796610	     -2.53015064	     -0.41900482	     -2.67661640	      0.28622948	      0.93795741	     -0.08313124	      1.24448347	     -3.69737876	     -8.33329211	      0.48350195	      0.00843870	      2.33730260	     -3.01737335	     -7.49999828	      2.70498833	     -2.73411122	     -7.71785844	      4.76651872	      0.08319145	      7.73674457	     -3.59095772	     -7.49999828	     -1.21181340	     -1.15571959	     -9.56882167	      0.02496285	     -0.01793899	     -0.00503950	     23.98979109	      6.29903271	     -4.90358644	     26.23574992	     57.75518215	      0.01755931	     -0.01303050	     -0.00394305	     35.35321579	     29.69177335	    -33.50779363	     42.33526360	     43.76751064
      1.69491520	     -2.58572318	     -0.44111974	     -2.59094141	      0.28628837	      0.93787075	     -0.08344303	      1.31582269	     -3.64284381	     -8.46298979	      0.48838262	      0.00852388	      2.21186926	     -2.95612151	     -7.49999835	      2.83181392	     -2.78814009	     -7.71339354	      4.83202645	      0.08433477	      7.73803657	     -3.50112853	     -7.49999835	     -1.25425157	     -1.17829181	     -9.62832647	      0.02433610	     -0.01793284	     -0.00507850	     24.19202014	      6.27048887	     -5.04322935	     26.36056120	     57.68475772	      0.01728496	     -0.01280198	     -0.00398072	     35.61701648	     29.94781060	    -33.69231598	     42.47747348	     43.73643448
      1.71186440	     -2.60814648	     -0.49014986	     -2.56786661	      0.28615685	      0.93750419	     -0.08335728	      1.35431997	     -3.57150841	     -8.51940220	      0.50111953	      0.00874619	      2.26735191	     -2.88058641	     -7.49999857	      2.96345752	     -2.87541496	     -7.89630565	      5.02364376	      0.08767912	      7.91401424	     -3.30608796	     -7.49999857	     -1.22379826	     -1.14869740	     -9.51156892	      0.02437486	     -0.01789939	     -0.00505386	     23.31682700	      6.02295342	     -5.34572093	     26.17402258	     57.18788669	      0.01768378	     -0.01262886	     -0.00394437	     36.31385443	     30.16028604	    -34.24038229	     42.40428655	     41.30408002
      1.72881360	     -2.43348788	     -0.52785279	     -2.59431323	      0.28618514	      0.93493891	     -0.08327180	      1.16510195	     -3.54318059	     -8.56238849	      0.50860222	      0.00887678	      2.24450205	     -2.83328007	     -7.49999887	      2.77137134	     -2.92488778	     -8.09824176	      5.02261590	      0.08766118	      7.93959561	     -3.19679999	     -7.49999887	     -1.52034179	     -1.19208873	     -9.51056723	      0.02369667	     -0.01790937	     -0.00515031	     24.85043417	      6.37874991	     -4.67839554	     26.14838425	     57.14303035	      0.01725862	     -0.01217214	     -0.00392069	     36.53607309	     30.40255445	    -34.55990590	     42.54453850	     42.74371944
      1.74576270	     -2.66366125	     -0.50566710	     -2.48837473	      0.28623838	      0.93452082	     -0.08324252	      1.41188804	     -3.55643419	     -8.60413492	      0.54520615	      0.00951564	      2.09737672	     -3.22711194	     -7.49999899	      3.15280134	     -2.92662186	     -7.87533742	      5.24750465	      0.09158623	      7.97391019	     -3.59078484	     -7.49999899	     -1.20248597	     -1.22012835	     -9.58856608	      0.02401496	     -0.01785397	     -0.00505608	     23.79428739	      5.95642115	     -5.69861108	     25.95367926	     56.69630070	      0.01716552	     -0.01223627	     -0.00395812	     36.70783578	     30.56994609	    -34.54917004	     42.62834273	     41.24617401
      1.76271190	     -2.65120446	     -0.54595753	     -2.37272289	      0.28638003	      0.93492623	     -0.08348356	      1.37481595	     -3.50530744	     -8.73205413	      0.55389799	      0.00966734	      2.13536086	     -3.30650692	     -7.49999900	      3.22137819	     -2.96218139	     -7.86395345	      5.33757438	      0.09315825	      8.12877003	     -3.61914803	     -7.49999900	     -1.21958483	     -1.23253049	     -9.66743580	      0.02424679	     -0.01782165	     -0.00505378	     23.82064602	      6.00376343	     -5.56489696	     25.95301036	     56.70319123	      0.01758370	     -0.01210756	     -0.00401667	     36.97464352	     30.81142430	    -34.47740250	     42.80390080	     41.05407973
      1.77966100	     -2.57317587	     -0.55519804	     -2.30216964	      0.28631627	      0.93495338	     -0.08342331	      1.27751421	     -3.49159030	     -8.76596723	      0.56783977	      0.00991067	      2.16302815	     -3.34538661	     -7.49999908	      3.18180046	     -2.96203710	     -7.92571014	      5.36896332	      0.09370609	      8.20059309	     -3.64050938	     -7.49999908	     -1.36743589	     -1.28294463	     -9.60455230	      0.02373547	     -0.01778483	     -0.00511275	     24.58843381	      6.15773932	     -5.79418991	     25.83329205	     56.58712663	      0.01730307	     -0.01187708	     -0.00403550	     37.67495572	     31.15422359	    -34.69884150	     42.70210668	     41.07570367
